<mxfile host="65bd71144e">
    <diagram id="T1P9fpR9Zt5OswFBoEtl" name="Page-1">
        <mxGraphModel dx="2916" dy="734" grid="0" gridSize="10" guides="1" tooltips="1" connect="1" arrows="1" fold="1" page="1" pageScale="1" pageWidth="850" pageHeight="1100" background="#ffffff" math="0" shadow="0">
            <root>
                <mxCell id="0"/>
                <mxCell id="1" parent="0"/>
                <mxCell id="332" value="" style="rounded=0;whiteSpace=wrap;html=1;fontColor=#000000;fillColor=none;" parent="1" vertex="1">
                    <mxGeometry x="-1638" y="27" width="739" height="895" as="geometry"/>
                </mxCell>
                <mxCell id="162" value="" style="ellipse;html=1;shape=startState;fillColor=#000000;strokeColor=#ff0000;" parent="1" vertex="1">
                    <mxGeometry x="-1558.6" y="97" width="30" height="30" as="geometry"/>
                </mxCell>
                <mxCell id="163" value="" style="edgeStyle=orthogonalEdgeStyle;html=1;verticalAlign=bottom;endArrow=open;endSize=8;strokeColor=#ff0000;rounded=0;" parent="1" source="162" edge="1">
                    <mxGeometry relative="1" as="geometry">
                        <mxPoint x="-1543.6" y="187" as="targetPoint"/>
                    </mxGeometry>
                </mxCell>
                <mxCell id="164" style="edgeStyle=orthogonalEdgeStyle;rounded=0;orthogonalLoop=1;jettySize=auto;html=1;exitX=0.5;exitY=1;exitDx=0;exitDy=0;" parent="1" edge="1">
                    <mxGeometry relative="1" as="geometry">
                        <mxPoint x="-1543.6" y="237" as="sourcePoint"/>
                        <mxPoint x="-1543.6" y="237" as="targetPoint"/>
                    </mxGeometry>
                </mxCell>
                <mxCell id="165" value="Display public timeline" style="rounded=1;whiteSpace=wrap;html=1;arcSize=40;fontColor=#000000;fillColor=#ffffc0;strokeColor=#ff0000;" parent="1" vertex="1">
                    <mxGeometry x="-1603.6" y="187" width="120" height="40" as="geometry"/>
                </mxCell>
                <mxCell id="166" value="" style="edgeStyle=orthogonalEdgeStyle;html=1;verticalAlign=bottom;endArrow=open;endSize=8;strokeColor=#ff0000;rounded=0;exitX=0.5;exitY=1;exitDx=0;exitDy=0;" parent="1" source="165" edge="1">
                    <mxGeometry relative="1" as="geometry">
                        <mxPoint x="-1543.6" y="267" as="targetPoint"/>
                        <Array as="points">
                            <mxPoint x="-1543.6" y="247"/>
                            <mxPoint x="-1543.6" y="247"/>
                        </Array>
                    </mxGeometry>
                </mxCell>
                <mxCell id="167" style="edgeStyle=orthogonalEdgeStyle;rounded=0;orthogonalLoop=1;jettySize=auto;html=1;entryX=0.5;entryY=0;entryDx=0;entryDy=0;strokeColor=#FF0000;" parent="1" source="168" target="172" edge="1">
                    <mxGeometry relative="1" as="geometry"/>
                </mxCell>
                <mxCell id="168" value="Succesfull?&lt;br&gt;" style="rhombus;whiteSpace=wrap;html=1;fontColor=#000000;fillColor=#ffffc0;strokeColor=#ff0000;" parent="1" vertex="1">
                    <mxGeometry x="-1588.6" y="457" width="90" height="40" as="geometry"/>
                </mxCell>
                <mxCell id="169" value="no" style="edgeStyle=orthogonalEdgeStyle;html=1;align=left;verticalAlign=bottom;endArrow=open;endSize=8;strokeColor=#ff0000;rounded=0;entryX=1;entryY=0.5;entryDx=0;entryDy=0;fontColor=#000000;labelBackgroundColor=none;" parent="1" source="168" target="165" edge="1">
                    <mxGeometry x="-1" relative="1" as="geometry">
                        <mxPoint x="-1408.6" y="417" as="targetPoint"/>
                        <Array as="points">
                            <mxPoint x="-1438.6" y="477"/>
                            <mxPoint x="-1438.6" y="207"/>
                        </Array>
                    </mxGeometry>
                </mxCell>
                <mxCell id="170" value="Follow Bella" style="rounded=1;whiteSpace=wrap;html=1;arcSize=40;fontColor=#000000;fillColor=#ffffc0;strokeColor=#ff0000;" parent="1" vertex="1">
                    <mxGeometry x="-1603.6" y="367" width="120" height="40" as="geometry"/>
                </mxCell>
                <mxCell id="171" value="" style="edgeStyle=orthogonalEdgeStyle;html=1;verticalAlign=bottom;endArrow=open;endSize=8;strokeColor=#ff0000;rounded=0;exitX=0.5;exitY=1;exitDx=0;exitDy=0;" parent="1" edge="1">
                    <mxGeometry relative="1" as="geometry">
                        <mxPoint x="-1543.6" y="457" as="targetPoint"/>
                        <mxPoint x="-1540.5411764705882" y="407" as="sourcePoint"/>
                        <Array as="points">
                            <mxPoint x="-1543.6" y="427"/>
                            <mxPoint x="-1543.6" y="427"/>
                        </Array>
                    </mxGeometry>
                </mxCell>
                <mxCell id="172" value="Follow becomes an ufollow button" style="rounded=1;whiteSpace=wrap;html=1;arcSize=40;fontColor=#000000;fillColor=#ffffc0;strokeColor=#ff0000;" parent="1" vertex="1">
                    <mxGeometry x="-1603.6" y="547" width="120" height="40" as="geometry"/>
                </mxCell>
                <mxCell id="173" value="" style="edgeStyle=orthogonalEdgeStyle;html=1;verticalAlign=bottom;endArrow=open;endSize=8;strokeColor=#ff0000;rounded=0;" parent="1" source="172" edge="1">
                    <mxGeometry relative="1" as="geometry">
                        <mxPoint x="-1543.6" y="657" as="targetPoint"/>
                    </mxGeometry>
                </mxCell>
                <mxCell id="174" value="yes" style="edgeStyle=orthogonalEdgeStyle;html=1;align=left;verticalAlign=top;endArrow=open;endSize=8;strokeColor=#ff0000;rounded=0;entryX=0.5;entryY=0;entryDx=0;entryDy=0;exitX=0.5;exitY=1;exitDx=0;exitDy=0;labelBackgroundColor=none;fontColor=#000000;" parent="1" source="168" target="172" edge="1">
                    <mxGeometry x="-0.6" y="5" relative="1" as="geometry">
                        <mxPoint x="-1328.6" y="607" as="targetPoint"/>
                        <mxPoint x="-1328.6" y="547" as="sourcePoint"/>
                        <mxPoint as="offset"/>
                    </mxGeometry>
                </mxCell>
                <mxCell id="175" value="See a follow button next to a username: Bella" style="rounded=1;whiteSpace=wrap;html=1;arcSize=40;fontColor=#000000;fillColor=#ffffc0;strokeColor=#ff0000;" parent="1" vertex="1">
                    <mxGeometry x="-1611.1" y="267" width="135" height="40" as="geometry"/>
                </mxCell>
                <mxCell id="176" value="" style="edgeStyle=orthogonalEdgeStyle;html=1;verticalAlign=bottom;endArrow=open;endSize=8;strokeColor=#ff0000;rounded=0;" parent="1" source="175" edge="1">
                    <mxGeometry relative="1" as="geometry">
                        <mxPoint x="-1543.6" y="367" as="targetPoint"/>
                    </mxGeometry>
                </mxCell>
                <mxCell id="177" value="Go to UserTimeline" style="rounded=1;whiteSpace=wrap;html=1;arcSize=40;fontColor=#000000;fillColor=#ffffc0;strokeColor=#ff0000;" parent="1" vertex="1">
                    <mxGeometry x="-1603.6" y="657" width="120" height="40" as="geometry"/>
                </mxCell>
                <mxCell id="178" value="" style="edgeStyle=orthogonalEdgeStyle;html=1;verticalAlign=bottom;endArrow=open;endSize=8;strokeColor=#ff0000;rounded=0;" parent="1" source="177" edge="1">
                    <mxGeometry relative="1" as="geometry">
                        <mxPoint x="-1543.6" y="757" as="targetPoint"/>
                    </mxGeometry>
                </mxCell>
                <mxCell id="179" value="See own cheeps and Bella's cheeps" style="rounded=1;whiteSpace=wrap;html=1;arcSize=40;fontColor=#000000;fillColor=#ffffc0;strokeColor=#ff0000;" parent="1" vertex="1">
                    <mxGeometry x="-1603.6" y="757" width="120" height="40" as="geometry"/>
                </mxCell>
                <mxCell id="180" value="" style="edgeStyle=orthogonalEdgeStyle;html=1;verticalAlign=bottom;endArrow=open;endSize=8;strokeColor=#ff0000;rounded=0;" parent="1" source="179" target="181" edge="1">
                    <mxGeometry relative="1" as="geometry">
                        <mxPoint x="-1543.6" y="857" as="targetPoint"/>
                    </mxGeometry>
                </mxCell>
                <mxCell id="181" value="" style="ellipse;html=1;shape=endState;fillColor=#000000;strokeColor=#ff0000;" parent="1" vertex="1">
                    <mxGeometry x="-1558.6" y="842" width="30" height="30" as="geometry"/>
                </mxCell>
                <mxCell id="182" value="" style="ellipse;html=1;shape=startState;fillColor=#000000;strokeColor=#ff0000;" parent="1" vertex="1">
                    <mxGeometry x="-1020.2499999999999" y="1911" width="30" height="30" as="geometry"/>
                </mxCell>
                <mxCell id="183" value="" style="edgeStyle=orthogonalEdgeStyle;html=1;verticalAlign=bottom;endArrow=open;endSize=8;strokeColor=#ff0000;rounded=0;" parent="1" source="182" edge="1">
                    <mxGeometry relative="1" as="geometry">
                        <mxPoint x="-1005.2499999999999" y="2001" as="targetPoint"/>
                    </mxGeometry>
                </mxCell>
                <mxCell id="184" style="edgeStyle=orthogonalEdgeStyle;rounded=0;orthogonalLoop=1;jettySize=auto;html=1;exitX=0.5;exitY=1;exitDx=0;exitDy=0;" parent="1" edge="1">
                    <mxGeometry relative="1" as="geometry">
                        <mxPoint x="-1005.2499999999999" y="2051" as="sourcePoint"/>
                        <mxPoint x="-1005.2499999999999" y="2051" as="targetPoint"/>
                    </mxGeometry>
                </mxCell>
                <mxCell id="185" value="Display public timeline" style="rounded=1;whiteSpace=wrap;html=1;arcSize=40;fontColor=#000000;fillColor=#ffffc0;strokeColor=#ff0000;" parent="1" vertex="1">
                    <mxGeometry x="-1065.25" y="2001" width="120" height="40" as="geometry"/>
                </mxCell>
                <mxCell id="186" value="" style="edgeStyle=orthogonalEdgeStyle;html=1;verticalAlign=bottom;endArrow=open;endSize=8;strokeColor=#ff0000;rounded=0;exitX=0.5;exitY=1;exitDx=0;exitDy=0;" parent="1" source="185" edge="1">
                    <mxGeometry relative="1" as="geometry">
                        <mxPoint x="-1005.2499999999999" y="2081" as="targetPoint"/>
                        <Array as="points">
                            <mxPoint x="-1005.2499999999999" y="2061"/>
                            <mxPoint x="-1005.2499999999999" y="2061"/>
                        </Array>
                    </mxGeometry>
                </mxCell>
                <mxCell id="187" style="edgeStyle=orthogonalEdgeStyle;rounded=0;orthogonalLoop=1;jettySize=auto;html=1;entryX=0.5;entryY=0;entryDx=0;entryDy=0;strokeColor=#FF0000;" parent="1" source="188" target="190" edge="1">
                    <mxGeometry relative="1" as="geometry"/>
                </mxCell>
                <mxCell id="188" value="Succesfull?&lt;br&gt;" style="rhombus;whiteSpace=wrap;html=1;fontColor=#000000;fillColor=#ffffc0;strokeColor=#ff0000;" parent="1" vertex="1">
                    <mxGeometry x="-1050.25" y="2181" width="90" height="40" as="geometry"/>
                </mxCell>
                <mxCell id="189" value="no" style="edgeStyle=orthogonalEdgeStyle;html=1;align=left;verticalAlign=bottom;endArrow=open;endSize=8;strokeColor=#ff0000;rounded=0;entryX=1;entryY=0.5;entryDx=0;entryDy=0;labelBackgroundColor=none;fontColor=#000000;" parent="1" source="188" target="185" edge="1">
                    <mxGeometry x="-1" relative="1" as="geometry">
                        <mxPoint x="-870.2499999999999" y="2231" as="targetPoint"/>
                        <Array as="points">
                            <mxPoint x="-899.7499999999999" y="2201"/>
                            <mxPoint x="-899.7499999999999" y="2021"/>
                        </Array>
                    </mxGeometry>
                </mxCell>
                <mxCell id="190" value="Navigationbar changes.&lt;br&gt;CheepBox appear.&lt;br&gt;Cheeps get a follow/unfollow button." style="rounded=1;whiteSpace=wrap;html=1;arcSize=36;fontColor=#000000;fillColor=#ffffc0;strokeColor=#ff0000;" parent="1" vertex="1">
                    <mxGeometry x="-1079" y="2271" width="147.5" height="72" as="geometry"/>
                </mxCell>
                <mxCell id="191" value="" style="edgeStyle=orthogonalEdgeStyle;html=1;verticalAlign=bottom;endArrow=open;endSize=8;strokeColor=#ff0000;rounded=0;" parent="1" source="190" edge="1">
                    <mxGeometry relative="1" as="geometry">
                        <mxPoint x="-1005.2499999999999" y="2381" as="targetPoint"/>
                    </mxGeometry>
                </mxCell>
                <mxCell id="192" value="yes" style="edgeStyle=orthogonalEdgeStyle;html=1;align=left;verticalAlign=top;endArrow=open;endSize=8;strokeColor=#ff0000;rounded=0;entryX=0.5;entryY=0;entryDx=0;entryDy=0;exitX=0.5;exitY=1;exitDx=0;exitDy=0;labelBackgroundColor=none;fontColor=#000000;" parent="1" source="188" target="190" edge="1">
                    <mxGeometry x="-0.6" y="5" relative="1" as="geometry">
                        <mxPoint x="-790.2499999999999" y="2331" as="targetPoint"/>
                        <mxPoint x="-790.2499999999999" y="2271" as="sourcePoint"/>
                        <mxPoint as="offset"/>
                    </mxGeometry>
                </mxCell>
                <mxCell id="193" value="Login" style="rounded=1;whiteSpace=wrap;html=1;arcSize=40;fontColor=#000000;fillColor=#ffffc0;strokeColor=#ff0000;" parent="1" vertex="1">
                    <mxGeometry x="-1065.25" y="2081" width="120" height="40" as="geometry"/>
                </mxCell>
                <mxCell id="194" value="" style="edgeStyle=orthogonalEdgeStyle;html=1;verticalAlign=bottom;endArrow=open;endSize=8;strokeColor=#ff0000;rounded=0;" parent="1" source="193" edge="1">
                    <mxGeometry relative="1" as="geometry">
                        <mxPoint x="-1005.2499999999999" y="2181" as="targetPoint"/>
                    </mxGeometry>
                </mxCell>
                <mxCell id="195" value="" style="ellipse;html=1;shape=endState;fillColor=#000000;strokeColor=#ff0000;" parent="1" vertex="1">
                    <mxGeometry x="-1020.2499999999999" y="2381" width="30" height="30" as="geometry"/>
                </mxCell>
                <mxCell id="196" value="" style="ellipse;html=1;shape=startState;fillColor=#000000;strokeColor=#ff0000;" parent="1" vertex="1">
                    <mxGeometry x="-1049" y="129" width="30" height="30" as="geometry"/>
                </mxCell>
                <mxCell id="197" value="" style="edgeStyle=orthogonalEdgeStyle;html=1;verticalAlign=bottom;endArrow=open;endSize=8;strokeColor=#ff0000;rounded=0;" parent="1" source="196" edge="1">
                    <mxGeometry relative="1" as="geometry">
                        <mxPoint x="-1033.9999999999995" y="219" as="targetPoint"/>
                    </mxGeometry>
                </mxCell>
                <mxCell id="198" style="edgeStyle=orthogonalEdgeStyle;rounded=0;orthogonalLoop=1;jettySize=auto;html=1;exitX=0.5;exitY=1;exitDx=0;exitDy=0;" parent="1" edge="1">
                    <mxGeometry relative="1" as="geometry">
                        <mxPoint x="-1033.9999999999995" y="269" as="sourcePoint"/>
                        <mxPoint x="-1033.9999999999995" y="269" as="targetPoint"/>
                    </mxGeometry>
                </mxCell>
                <mxCell id="199" value="Display public timeline logged in" style="rounded=1;whiteSpace=wrap;html=1;arcSize=40;fontColor=#000000;fillColor=#ffffc0;strokeColor=#ff0000;" parent="1" vertex="1">
                    <mxGeometry x="-1094" y="219" width="120" height="40" as="geometry"/>
                </mxCell>
                <mxCell id="200" value="" style="edgeStyle=orthogonalEdgeStyle;html=1;verticalAlign=bottom;endArrow=open;endSize=8;strokeColor=#ff0000;rounded=0;exitX=0.5;exitY=1;exitDx=0;exitDy=0;" parent="1" source="199" edge="1">
                    <mxGeometry relative="1" as="geometry">
                        <mxPoint x="-1034.75" y="289" as="targetPoint"/>
                        <Array as="points">
                            <mxPoint x="-1034" y="279"/>
                            <mxPoint x="-1034" y="279"/>
                        </Array>
                    </mxGeometry>
                </mxCell>
                <mxCell id="207" value="" style="edgeStyle=orthogonalEdgeStyle;html=1;verticalAlign=bottom;endArrow=open;endSize=8;strokeColor=#ff0000;rounded=0;entryX=0.5;entryY=0;entryDx=0;entryDy=0;" parent="1" edge="1">
                    <mxGeometry relative="1" as="geometry">
                        <mxPoint x="-1034" y="399" as="targetPoint"/>
                        <mxPoint x="-1034" y="329" as="sourcePoint"/>
                    </mxGeometry>
                </mxCell>
                <mxCell id="208" value="Type Cheep" style="rounded=1;whiteSpace=wrap;html=1;arcSize=40;fontColor=#000000;fillColor=#ffffc0;strokeColor=#ff0000;" parent="1" vertex="1">
                    <mxGeometry x="-1094" y="288" width="120" height="40" as="geometry"/>
                </mxCell>
                <mxCell id="209" value="" style="edgeStyle=orthogonalEdgeStyle;html=1;verticalAlign=bottom;endArrow=open;endSize=8;strokeColor=#ff0000;rounded=0;" parent="1" source="208" edge="1">
                    <mxGeometry relative="1" as="geometry">
                        <mxPoint x="-1033.7500000000005" y="368" as="targetPoint"/>
                    </mxGeometry>
                </mxCell>
                <mxCell id="211" value="Press Share" style="rounded=1;whiteSpace=wrap;html=1;arcSize=40;fontColor=#000000;fillColor=#ffffc0;strokeColor=#ff0000;" parent="1" vertex="1">
                    <mxGeometry x="-1094" y="368" width="120" height="40" as="geometry"/>
                </mxCell>
                <mxCell id="212" value="" style="edgeStyle=orthogonalEdgeStyle;html=1;verticalAlign=bottom;endArrow=open;endSize=8;strokeColor=#ff0000;rounded=0;" parent="1" source="211" edge="1">
                    <mxGeometry relative="1" as="geometry">
                        <mxPoint x="-1033.7500000000005" y="448" as="targetPoint"/>
                    </mxGeometry>
                </mxCell>
                <mxCell id="213" value="Succesfull?" style="rhombus;whiteSpace=wrap;html=1;fontColor=#000000;fillColor=#ffffc0;strokeColor=#ff0000;" parent="1" vertex="1">
                    <mxGeometry x="-1074.75" y="448" width="80" height="40" as="geometry"/>
                </mxCell>
                <mxCell id="214" value="no" style="edgeStyle=orthogonalEdgeStyle;html=1;align=left;verticalAlign=bottom;endArrow=open;endSize=8;strokeColor=#ff0000;rounded=0;entryX=1;entryY=0.5;entryDx=0;entryDy=0;fontColor=#000000;labelBackgroundColor=none;" parent="1" source="213" target="208" edge="1">
                    <mxGeometry x="-1" relative="1" as="geometry">
                        <mxPoint x="-894.75" y="468" as="targetPoint"/>
                        <Array as="points">
                            <mxPoint x="-924.75" y="468"/>
                            <mxPoint x="-924.75" y="308"/>
                        </Array>
                    </mxGeometry>
                </mxCell>
                <mxCell id="215" value="yes" style="edgeStyle=orthogonalEdgeStyle;html=1;align=left;verticalAlign=top;endArrow=open;endSize=8;strokeColor=#ff0000;rounded=0;fontColor=#000000;labelBackgroundColor=none;" parent="1" source="213" edge="1">
                    <mxGeometry x="-1" relative="1" as="geometry">
                        <mxPoint x="-1034.75" y="528" as="targetPoint"/>
                    </mxGeometry>
                </mxCell>
                <mxCell id="216" value="Display User timeline" style="rounded=1;whiteSpace=wrap;html=1;arcSize=40;fontColor=#000000;fillColor=#ffffc0;strokeColor=#ff0000;" parent="1" vertex="1">
                    <mxGeometry x="-1094" y="528" width="120" height="40" as="geometry"/>
                </mxCell>
                <mxCell id="217" value="" style="edgeStyle=orthogonalEdgeStyle;html=1;verticalAlign=bottom;endArrow=open;endSize=8;strokeColor=#ff0000;rounded=0;" parent="1" source="216" edge="1">
                    <mxGeometry relative="1" as="geometry">
                        <mxPoint x="-1033.7500000000005" y="618" as="targetPoint"/>
                    </mxGeometry>
                </mxCell>
                <mxCell id="218" value="" style="ellipse;html=1;shape=endState;fillColor=#000000;strokeColor=#ff0000;" parent="1" vertex="1">
                    <mxGeometry x="-1049" y="705" width="30" height="30" as="geometry"/>
                </mxCell>
                <mxCell id="219" value="" style="ellipse;html=1;shape=startState;fillColor=#000000;strokeColor=#ff0000;" parent="1" vertex="1">
                    <mxGeometry x="-1307.25" y="124" width="30" height="30" as="geometry"/>
                </mxCell>
                <mxCell id="220" value="" style="edgeStyle=orthogonalEdgeStyle;html=1;verticalAlign=bottom;endArrow=open;endSize=8;strokeColor=#ff0000;rounded=0;" parent="1" source="219" edge="1">
                    <mxGeometry relative="1" as="geometry">
                        <mxPoint x="-1292.25" y="214" as="targetPoint"/>
                    </mxGeometry>
                </mxCell>
                <mxCell id="221" style="edgeStyle=orthogonalEdgeStyle;rounded=0;orthogonalLoop=1;jettySize=auto;html=1;exitX=0.5;exitY=1;exitDx=0;exitDy=0;" parent="1" edge="1">
                    <mxGeometry relative="1" as="geometry">
                        <mxPoint x="-1292.25" y="264" as="sourcePoint"/>
                        <mxPoint x="-1292.25" y="264" as="targetPoint"/>
                    </mxGeometry>
                </mxCell>
                <mxCell id="222" value="Display public timeline" style="rounded=1;whiteSpace=wrap;html=1;arcSize=40;fontColor=#000000;fillColor=#ffffc0;strokeColor=#ff0000;" parent="1" vertex="1">
                    <mxGeometry x="-1352.25" y="214" width="120" height="40" as="geometry"/>
                </mxCell>
                <mxCell id="223" value="" style="edgeStyle=orthogonalEdgeStyle;html=1;verticalAlign=bottom;endArrow=open;endSize=8;strokeColor=#ff0000;rounded=0;exitX=0.5;exitY=1;exitDx=0;exitDy=0;" parent="1" source="222" edge="1">
                    <mxGeometry relative="1" as="geometry">
                        <mxPoint x="-1293" y="284" as="targetPoint"/>
                        <Array as="points">
                            <mxPoint x="-1292.25" y="274"/>
                            <mxPoint x="-1292.25" y="274"/>
                        </Array>
                    </mxGeometry>
                </mxCell>
                <mxCell id="224" style="edgeStyle=orthogonalEdgeStyle;rounded=0;orthogonalLoop=1;jettySize=auto;html=1;entryX=0.5;entryY=0;entryDx=0;entryDy=0;strokeColor=#FF0000;" parent="1" source="225" target="227" edge="1">
                    <mxGeometry relative="1" as="geometry"/>
                </mxCell>
                <mxCell id="225" value="Succesfull?&lt;br&gt;" style="rhombus;whiteSpace=wrap;html=1;fontColor=#000000;fillColor=#ffffc0;strokeColor=#ff0000;" parent="1" vertex="1">
                    <mxGeometry x="-1337.25" y="362" width="90" height="40" as="geometry"/>
                </mxCell>
                <mxCell id="226" value="no" style="edgeStyle=orthogonalEdgeStyle;html=1;align=left;verticalAlign=bottom;endArrow=open;endSize=8;strokeColor=#ff0000;rounded=0;entryX=1;entryY=0.5;entryDx=0;entryDy=0;labelBackgroundColor=none;fontColor=#000000;" parent="1" source="225" target="222" edge="1">
                    <mxGeometry x="-1" relative="1" as="geometry">
                        <mxPoint x="-1157.25" y="444" as="targetPoint"/>
                        <Array as="points">
                            <mxPoint x="-1187" y="384"/>
                            <mxPoint x="-1187" y="234"/>
                        </Array>
                    </mxGeometry>
                </mxCell>
                <mxCell id="227" value="Display User Timeline" style="rounded=1;whiteSpace=wrap;html=1;arcSize=40;fontColor=#000000;fillColor=#ffffc0;strokeColor=#ff0000;" parent="1" vertex="1">
                    <mxGeometry x="-1366" y="444" width="147.5" height="40" as="geometry"/>
                </mxCell>
                <mxCell id="228" value="yes" style="edgeStyle=orthogonalEdgeStyle;html=1;align=left;verticalAlign=top;endArrow=open;endSize=8;strokeColor=#ff0000;rounded=0;entryX=0.5;entryY=0;entryDx=0;entryDy=0;exitX=0.5;exitY=1;exitDx=0;exitDy=0;labelBackgroundColor=none;fontColor=#000000;" parent="1" source="225" target="227" edge="1">
                    <mxGeometry x="-0.6" y="5" relative="1" as="geometry">
                        <mxPoint x="-1077.25" y="544" as="targetPoint"/>
                        <mxPoint x="-1077.25" y="484" as="sourcePoint"/>
                        <mxPoint as="offset"/>
                    </mxGeometry>
                </mxCell>
                <mxCell id="229" value="Login" style="rounded=1;whiteSpace=wrap;html=1;arcSize=40;fontColor=#000000;fillColor=#ffffc0;strokeColor=#ff0000;" parent="1" vertex="1">
                    <mxGeometry x="-1352.25" y="284" width="120" height="40" as="geometry"/>
                </mxCell>
                <mxCell id="230" value="" style="edgeStyle=orthogonalEdgeStyle;html=1;verticalAlign=bottom;endArrow=open;endSize=8;strokeColor=#ff0000;rounded=0;entryX=0.5;entryY=0;entryDx=0;entryDy=0;" parent="1" source="229" target="225" edge="1">
                    <mxGeometry relative="1" as="geometry">
                        <mxPoint x="-1292.25" y="394" as="targetPoint"/>
                    </mxGeometry>
                </mxCell>
                <mxCell id="231" value="Type Cheep" style="rounded=1;whiteSpace=wrap;html=1;arcSize=40;fontColor=#000000;fillColor=#ffffc0;strokeColor=#ff0000;" parent="1" vertex="1">
                    <mxGeometry x="-1352.25" y="514" width="120" height="40" as="geometry"/>
                </mxCell>
                <mxCell id="232" value="" style="edgeStyle=orthogonalEdgeStyle;html=1;verticalAlign=bottom;endArrow=open;endSize=8;strokeColor=#ff0000;rounded=0;" parent="1" source="231" edge="1">
                    <mxGeometry relative="1" as="geometry">
                        <mxPoint x="-1292" y="594" as="targetPoint"/>
                    </mxGeometry>
                </mxCell>
                <mxCell id="233" value="" style="edgeStyle=orthogonalEdgeStyle;html=1;verticalAlign=bottom;endArrow=open;endSize=8;strokeColor=#ff0000;rounded=0;exitX=0.5;exitY=1;exitDx=0;exitDy=0;" parent="1" source="227" edge="1">
                    <mxGeometry relative="1" as="geometry">
                        <mxPoint x="-1292" y="514" as="targetPoint"/>
                        <mxPoint x="-1173" y="554" as="sourcePoint"/>
                    </mxGeometry>
                </mxCell>
                <mxCell id="234" value="Press Share" style="rounded=1;whiteSpace=wrap;html=1;arcSize=40;fontColor=#000000;fillColor=#ffffc0;strokeColor=#ff0000;" parent="1" vertex="1">
                    <mxGeometry x="-1352.25" y="594" width="120" height="40" as="geometry"/>
                </mxCell>
                <mxCell id="235" value="" style="edgeStyle=orthogonalEdgeStyle;html=1;verticalAlign=bottom;endArrow=open;endSize=8;strokeColor=#ff0000;rounded=0;" parent="1" source="234" edge="1">
                    <mxGeometry relative="1" as="geometry">
                        <mxPoint x="-1292" y="674" as="targetPoint"/>
                    </mxGeometry>
                </mxCell>
                <mxCell id="236" value="Succesfull?" style="rhombus;whiteSpace=wrap;html=1;fontColor=#000000;fillColor=#ffffc0;strokeColor=#ff0000;" parent="1" vertex="1">
                    <mxGeometry x="-1333" y="674" width="80" height="40" as="geometry"/>
                </mxCell>
                <mxCell id="237" value="no" style="edgeStyle=orthogonalEdgeStyle;html=1;align=left;verticalAlign=bottom;endArrow=open;endSize=8;strokeColor=#ff0000;rounded=0;entryX=1;entryY=0.5;entryDx=0;entryDy=0;labelBackgroundColor=none;fontColor=#000000;" parent="1" source="236" target="231" edge="1">
                    <mxGeometry x="-1" relative="1" as="geometry">
                        <mxPoint x="-1153" y="694" as="targetPoint"/>
                        <Array as="points">
                            <mxPoint x="-1183" y="694"/>
                            <mxPoint x="-1183" y="534"/>
                        </Array>
                    </mxGeometry>
                </mxCell>
                <mxCell id="238" value="yes" style="edgeStyle=orthogonalEdgeStyle;html=1;align=left;verticalAlign=top;endArrow=open;endSize=8;strokeColor=#ff0000;rounded=0;labelBackgroundColor=none;fontColor=#000000;" parent="1" source="236" edge="1">
                    <mxGeometry x="-1" relative="1" as="geometry">
                        <mxPoint x="-1293" y="754" as="targetPoint"/>
                    </mxGeometry>
                </mxCell>
                <mxCell id="239" value="Display User timeline" style="rounded=1;whiteSpace=wrap;html=1;arcSize=40;fontColor=#000000;fillColor=#ffffc0;strokeColor=#ff0000;" parent="1" vertex="1">
                    <mxGeometry x="-1352.25" y="754" width="120" height="40" as="geometry"/>
                </mxCell>
                <mxCell id="240" value="" style="edgeStyle=orthogonalEdgeStyle;html=1;verticalAlign=bottom;endArrow=open;endSize=8;strokeColor=#ff0000;rounded=0;" parent="1" source="239" edge="1">
                    <mxGeometry relative="1" as="geometry">
                        <mxPoint x="-1292" y="844" as="targetPoint"/>
                    </mxGeometry>
                </mxCell>
                <mxCell id="241" value="" style="ellipse;html=1;shape=endState;fillColor=#000000;strokeColor=#ff0000;" parent="1" vertex="1">
                    <mxGeometry x="-1306" y="844" width="30" height="30" as="geometry"/>
                </mxCell>
                <mxCell id="242" value="&lt;font color=&quot;#000000&quot; style=&quot;font-size: 19px;&quot;&gt;User Timeline Cheepbox&lt;/font&gt;" style="text;html=1;strokeColor=none;fillColor=none;align=center;verticalAlign=middle;whiteSpace=wrap;rounded=0;" parent="1" vertex="1">
                    <mxGeometry x="-1351" y="54" width="120" height="30" as="geometry"/>
                </mxCell>
                <mxCell id="243" value="&lt;font color=&quot;#000000&quot; style=&quot;font-size: 19px;&quot;&gt;Public Timeline Cheepbox&lt;/font&gt;" style="text;html=1;strokeColor=none;fillColor=none;align=center;verticalAlign=middle;whiteSpace=wrap;rounded=0;" parent="1" vertex="1">
                    <mxGeometry x="-1100.5" y="59" width="133" height="30" as="geometry"/>
                </mxCell>
                <mxCell id="244" value="&lt;font color=&quot;#000000&quot; style=&quot;font-size: 19px;&quot;&gt;Login&lt;/font&gt;" style="text;html=1;strokeColor=none;fillColor=none;align=center;verticalAlign=middle;whiteSpace=wrap;rounded=0;" parent="1" vertex="1">
                    <mxGeometry x="-1065.25" y="1841" width="120" height="30" as="geometry"/>
                </mxCell>
                <mxCell id="245" value="&lt;font color=&quot;#000000&quot; style=&quot;font-size: 19px;&quot;&gt;Follow&lt;/font&gt;" style="text;html=1;strokeColor=none;fillColor=none;align=center;verticalAlign=middle;whiteSpace=wrap;rounded=0;" parent="1" vertex="1">
                    <mxGeometry x="-1600.4799999999998" y="54" width="120" height="30" as="geometry"/>
                </mxCell>
                <mxCell id="267" value="" style="ellipse;html=1;shape=startState;fillColor=#000000;strokeColor=#ff0000;" parent="1" vertex="1">
                    <mxGeometry x="-1303" y="1911" width="30" height="30" as="geometry"/>
                </mxCell>
                <mxCell id="268" value="" style="edgeStyle=orthogonalEdgeStyle;html=1;verticalAlign=bottom;endArrow=open;endSize=8;strokeColor=#ff0000;rounded=0;" parent="1" source="267" edge="1">
                    <mxGeometry relative="1" as="geometry">
                        <mxPoint x="-1288" y="2001" as="targetPoint"/>
                    </mxGeometry>
                </mxCell>
                <mxCell id="269" style="edgeStyle=orthogonalEdgeStyle;rounded=0;orthogonalLoop=1;jettySize=auto;html=1;exitX=0.5;exitY=1;exitDx=0;exitDy=0;" parent="1" edge="1">
                    <mxGeometry relative="1" as="geometry">
                        <mxPoint x="-1288" y="2051" as="sourcePoint"/>
                        <mxPoint x="-1288" y="2051" as="targetPoint"/>
                    </mxGeometry>
                </mxCell>
                <mxCell id="270" value="Display userpage" style="rounded=1;whiteSpace=wrap;html=1;arcSize=40;fontColor=#000000;fillColor=#ffffc0;strokeColor=#ff0000;" parent="1" vertex="1">
                    <mxGeometry x="-1348" y="2001" width="120" height="40" as="geometry"/>
                </mxCell>
                <mxCell id="271" value="" style="edgeStyle=orthogonalEdgeStyle;html=1;verticalAlign=bottom;endArrow=open;endSize=8;strokeColor=#ff0000;rounded=0;exitX=0.5;exitY=1;exitDx=0;exitDy=0;" parent="1" source="270" edge="1">
                    <mxGeometry relative="1" as="geometry">
                        <mxPoint x="-1288.75" y="2071" as="targetPoint"/>
                        <Array as="points">
                            <mxPoint x="-1288" y="2061"/>
                            <mxPoint x="-1288" y="2061"/>
                        </Array>
                    </mxGeometry>
                </mxCell>
                <mxCell id="272" value="Press the red Forget Me button" style="rounded=1;whiteSpace=wrap;html=1;arcSize=40;fontColor=#000000;fillColor=#ffffc0;strokeColor=#ff0000;" parent="1" vertex="1">
                    <mxGeometry x="-1348" y="2071" width="120" height="40" as="geometry"/>
                </mxCell>
                <mxCell id="273" value="" style="edgeStyle=orthogonalEdgeStyle;html=1;verticalAlign=bottom;endArrow=open;endSize=8;strokeColor=#ff0000;rounded=0;entryX=0.5;entryY=0;entryDx=0;entryDy=0;" parent="1" source="272" edge="1">
                    <mxGeometry relative="1" as="geometry">
                        <mxPoint x="-1288" y="2149" as="targetPoint"/>
                    </mxGeometry>
                </mxCell>
                <mxCell id="274" value="&lt;font color=&quot;#000000&quot; style=&quot;font-size: 19px;&quot;&gt;Profile deletion&lt;/font&gt;" style="text;html=1;strokeColor=none;fillColor=none;align=center;verticalAlign=middle;whiteSpace=wrap;rounded=0;" parent="1" vertex="1">
                    <mxGeometry x="-1346.75" y="1841" width="120" height="30" as="geometry"/>
                </mxCell>
                <mxCell id="275" value="Press confirm on alert box" style="rounded=1;whiteSpace=wrap;html=1;arcSize=40;fontColor=#000000;fillColor=#ffffc0;strokeColor=#ff0000;" parent="1" vertex="1">
                    <mxGeometry x="-1348" y="2149" width="120" height="40" as="geometry"/>
                </mxCell>
                <mxCell id="276" value="" style="edgeStyle=orthogonalEdgeStyle;html=1;verticalAlign=bottom;endArrow=open;endSize=8;strokeColor=#ff0000;rounded=0;" parent="1" source="275" edge="1">
                    <mxGeometry relative="1" as="geometry">
                        <mxPoint x="-1288" y="2249" as="targetPoint"/>
                    </mxGeometry>
                </mxCell>
                <mxCell id="277" value="Condition" style="rhombus;whiteSpace=wrap;html=1;fontColor=#000000;fillColor=#ffffc0;strokeColor=#ff0000;" parent="1" vertex="1">
                    <mxGeometry x="-1328.75" y="2248" width="80" height="40" as="geometry"/>
                </mxCell>
                <mxCell id="278" value="no" style="edgeStyle=orthogonalEdgeStyle;html=1;align=left;verticalAlign=bottom;endArrow=open;endSize=8;strokeColor=#ff0000;rounded=0;entryX=1;entryY=0.5;entryDx=0;entryDy=0;labelBackgroundColor=none;fontColor=#000000;" parent="1" source="277" target="270" edge="1">
                    <mxGeometry x="-1" relative="1" as="geometry">
                        <mxPoint x="-1148.75" y="2268" as="targetPoint"/>
                        <Array as="points">
                            <mxPoint x="-1151.75" y="2268"/>
                            <mxPoint x="-1151.75" y="2021"/>
                        </Array>
                    </mxGeometry>
                </mxCell>
                <mxCell id="279" value="yes" style="edgeStyle=orthogonalEdgeStyle;html=1;align=left;verticalAlign=top;endArrow=open;endSize=8;strokeColor=#ff0000;rounded=0;labelBackgroundColor=none;fontColor=#000000;" parent="1" source="277" edge="1">
                    <mxGeometry x="-1" relative="1" as="geometry">
                        <mxPoint x="-1288.75" y="2348" as="targetPoint"/>
                    </mxGeometry>
                </mxCell>
                <mxCell id="280" value="Display public timeline&lt;br&gt;Navigation bar changes to be logged out" style="rounded=1;whiteSpace=wrap;html=1;arcSize=40;fontColor=#000000;fillColor=#ffffc0;strokeColor=#ff0000;" parent="1" vertex="1">
                    <mxGeometry x="-1346.75" y="2346" width="120" height="79" as="geometry"/>
                </mxCell>
                <mxCell id="281" value="" style="edgeStyle=orthogonalEdgeStyle;html=1;verticalAlign=bottom;endArrow=open;endSize=8;strokeColor=#ff0000;rounded=0;" parent="1" edge="1">
                    <mxGeometry relative="1" as="geometry">
                        <mxPoint x="-1286.75" y="2485" as="targetPoint"/>
                        <mxPoint x="-1286.75" y="2426.0000000000005" as="sourcePoint"/>
                    </mxGeometry>
                </mxCell>
                <mxCell id="282" value="" style="ellipse;html=1;shape=endState;fillColor=#000000;strokeColor=#ff0000;" parent="1" vertex="1">
                    <mxGeometry x="-1301.75" y="2485" width="30" height="30" as="geometry"/>
                </mxCell>
                <mxCell id="283" value="" style="ellipse;html=1;shape=startState;fillColor=#000000;strokeColor=#ff0000;" parent="1" vertex="1">
                    <mxGeometry x="-1552.98" y="1911" width="30" height="30" as="geometry"/>
                </mxCell>
                <mxCell id="284" value="" style="edgeStyle=orthogonalEdgeStyle;html=1;verticalAlign=bottom;endArrow=open;endSize=8;strokeColor=#ff0000;rounded=0;" parent="1" source="283" edge="1">
                    <mxGeometry relative="1" as="geometry">
                        <mxPoint x="-1537.98" y="2001" as="targetPoint"/>
                    </mxGeometry>
                </mxCell>
                <mxCell id="285" style="edgeStyle=orthogonalEdgeStyle;rounded=0;orthogonalLoop=1;jettySize=auto;html=1;exitX=0.5;exitY=1;exitDx=0;exitDy=0;" parent="1" edge="1">
                    <mxGeometry relative="1" as="geometry">
                        <mxPoint x="-1537.98" y="2051" as="sourcePoint"/>
                        <mxPoint x="-1537.98" y="2051" as="targetPoint"/>
                    </mxGeometry>
                </mxCell>
                <mxCell id="286" value="&lt;font color=&quot;#000000&quot; style=&quot;font-size: 19px;&quot;&gt;UnAuthorized user experience&lt;/font&gt;" style="text;html=1;strokeColor=none;fillColor=none;align=center;verticalAlign=middle;whiteSpace=wrap;rounded=0;" parent="1" vertex="1">
                    <mxGeometry x="-1604.48" y="1841" width="133" height="30" as="geometry"/>
                </mxCell>
                <mxCell id="287" value="Display public timeline" style="rounded=1;whiteSpace=wrap;html=1;arcSize=40;fontColor=#000000;fillColor=#ffffc0;strokeColor=#ff0000;" parent="1" vertex="1">
                    <mxGeometry x="-1597.98" y="2001" width="120" height="40" as="geometry"/>
                </mxCell>
                <mxCell id="288" value="" style="edgeStyle=orthogonalEdgeStyle;html=1;verticalAlign=bottom;endArrow=open;endSize=8;strokeColor=#ff0000;" parent="1" source="287" edge="1">
                    <mxGeometry relative="1" as="geometry">
                        <mxPoint x="-1537.98" y="2101" as="targetPoint"/>
                    </mxGeometry>
                </mxCell>
                <mxCell id="289" value="See all cheeps" style="rounded=1;whiteSpace=wrap;html=1;arcSize=40;fontColor=#000000;fillColor=#ffffc0;strokeColor=#ff0000;" parent="1" vertex="1">
                    <mxGeometry x="-1597.98" y="2105" width="120" height="40" as="geometry"/>
                </mxCell>
                <mxCell id="290" value="" style="edgeStyle=orthogonalEdgeStyle;html=1;verticalAlign=bottom;endArrow=open;endSize=8;strokeColor=#ff0000;" parent="1" source="289" edge="1">
                    <mxGeometry relative="1" as="geometry">
                        <mxPoint x="-1537.98" y="2205" as="targetPoint"/>
                    </mxGeometry>
                </mxCell>
                <mxCell id="291" value="Sees an author and presses to see all their cheeps" style="rounded=1;whiteSpace=wrap;html=1;arcSize=40;fontColor=#000000;fillColor=#ffffc0;strokeColor=#ff0000;" parent="1" vertex="1">
                    <mxGeometry x="-1611.1" y="2208" width="146.25" height="40" as="geometry"/>
                </mxCell>
                <mxCell id="292" value="" style="edgeStyle=orthogonalEdgeStyle;html=1;verticalAlign=bottom;endArrow=open;endSize=8;strokeColor=#ff0000;" parent="1" source="291" edge="1">
                    <mxGeometry relative="1" as="geometry">
                        <mxPoint x="-1537.98" y="2311" as="targetPoint"/>
                    </mxGeometry>
                </mxCell>
                <mxCell id="293" value="&lt;font color=&quot;#000000&quot;&gt;Successfull?&lt;/font&gt;" style="rhombus;whiteSpace=wrap;html=1;fillColor=#ffffc0;strokeColor=#ff0000;" parent="1" vertex="1">
                    <mxGeometry x="-1583.73" y="2311" width="95" height="44" as="geometry"/>
                </mxCell>
                <mxCell id="294" value="no" style="edgeStyle=orthogonalEdgeStyle;html=1;align=left;verticalAlign=bottom;endArrow=open;endSize=8;strokeColor=#ff0000;entryX=1;entryY=0.5;entryDx=0;entryDy=0;labelBackgroundColor=none;fontColor=#000000;" parent="1" source="293" target="287" edge="1">
                    <mxGeometry x="-1" relative="1" as="geometry">
                        <mxPoint x="-1396.73" y="2331" as="targetPoint"/>
                        <Array as="points">
                            <mxPoint x="-1421.73" y="2333"/>
                            <mxPoint x="-1421.73" y="2021"/>
                        </Array>
                    </mxGeometry>
                </mxCell>
                <mxCell id="295" value="&lt;font style=&quot;&quot; color=&quot;#000000&quot;&gt;yes&lt;/font&gt;" style="edgeStyle=orthogonalEdgeStyle;html=1;align=left;verticalAlign=top;endArrow=open;endSize=8;strokeColor=#ff0000;labelBackgroundColor=none;" parent="1" source="293" edge="1">
                    <mxGeometry x="-1" relative="1" as="geometry">
                        <mxPoint x="-1536.73" y="2411" as="targetPoint"/>
                    </mxGeometry>
                </mxCell>
                <mxCell id="296" value="Show the users timeline" style="rounded=1;whiteSpace=wrap;html=1;arcSize=40;fontColor=#000000;fillColor=#ffffc0;strokeColor=#ff0000;" parent="1" vertex="1">
                    <mxGeometry x="-1596.23" y="2411" width="120" height="40" as="geometry"/>
                </mxCell>
                <mxCell id="297" value="" style="edgeStyle=orthogonalEdgeStyle;html=1;verticalAlign=bottom;endArrow=open;endSize=8;strokeColor=#ff0000;fontColor=#000000;" parent="1" source="296" edge="1">
                    <mxGeometry relative="1" as="geometry">
                        <mxPoint x="-1536.23" y="2511" as="targetPoint"/>
                    </mxGeometry>
                </mxCell>
                <mxCell id="298" value="" style="ellipse;html=1;shape=endState;fillColor=#000000;strokeColor=#ff0000;fontColor=#000000;" parent="1" vertex="1">
                    <mxGeometry x="-1551.23" y="2511" width="30" height="30" as="geometry"/>
                </mxCell>
                <mxCell id="330" value="Shows new cheep" style="rounded=1;whiteSpace=wrap;html=1;arcSize=40;fontColor=#000000;fillColor=#ffffc0;strokeColor=#ff0000;" parent="1" vertex="1">
                    <mxGeometry x="-1094" y="616" width="120" height="40" as="geometry"/>
                </mxCell>
                <mxCell id="331" value="" style="edgeStyle=orthogonalEdgeStyle;html=1;verticalAlign=bottom;endArrow=open;endSize=8;strokeColor=#ff0000;rounded=0;" parent="1" source="330" edge="1">
                    <mxGeometry relative="1" as="geometry">
                        <mxPoint x="-1033.7500000000005" y="706" as="targetPoint"/>
                    </mxGeometry>
                </mxCell>
            </root>
        </mxGraphModel>
    </diagram>
</mxfile>